<?xml version='1.0'?><svg xmlns="http://www.w3.org/2000/svg" viewBox="0 0 240 240" width="240" height="240">
			<rect id="frame-background" fill="#ffffff" x="8" y="8" width="224" height="224" />
			<!-- 
Bitly Generated QR Code
v4
33x33
-->
<svg  x='30.00' y='30.00' width='180.00' height='180.00' viewBox='0 0 528 528'
xmlns='http://www.w3.org/2000/svg'
xmlns:xlink='http://www.w3.org/1999/xlink'>
	<g id='background' style='fill:#ffffff' >
<rect x="0" y="0" width="528" height="528" />
</g>
<g id='pips' style='fill:#000000' >
<path d="M2.4,144L16,144L29.6,144A2.4,2.4,0,0,1,32,146.4L32,160L32,173.6A2.4,2.4,0,0,1,29.6,176L18.4,176A2.4,2.4,0,0,0,16,178.4L16,192L16,205.6A2.4,2.4,0,0,1,13.6,208L2.4,208A2.4,2.4,0,0,1,0,205.6L0,192L0,176L0,160L0,146.4A2.4,2.4,0,0,1,2.4,144M2.4,224L13.6,224A2.4,2.4,0,0,1,16,226.4L16,240L16,253.6A2.4,2.4,0,0,1,13.6,256L2.4,256A2.4,2.4,0,0,1,0,253.6L0,240L0,226.4A2.4,2.4,0,0,1,2.4,224M2.4,304L13.6,304A2.4,2.4,0,0,1,16,306.4L16,320L16,333.6A2.4,2.4,0,0,0,18.4,336L29.6,336A2.4,2.4,0,0,1,32,338.4L32,349.6A2.4,2.4,0,0,1,29.6,352L18.4,352A2.4,2.4,0,0,0,16,354.4L16,368L16,381.6A2.4,2.4,0,0,0,18.4,384L32,384L45.6,384A2.4,2.4,0,0,1,48,386.4L48,397.6A2.4,2.4,0,0,1,45.6,400L32,400L16,400L2.4,400A2.4,2.4,0,0,1,0,397.6L0,384L0,368L0,352L0,336L0,320L0,306.4A2.4,2.4,0,0,1,2.4,304M18.4,256L29.6,256A2.4,2.4,0,0,1,32,258.4L32,269.6A2.4,2.4,0,0,1,29.6,272L18.4,272A2.4,2.4,0,0,1,16,269.6L16,258.4A2.4,2.4,0,0,1,18.4,256M18.4,288L29.6,288A2.4,2.4,0,0,1,32,290.4L32,301.6A2.4,2.4,0,0,1,29.6,304L18.4,304A2.4,2.4,0,0,1,16,301.6L16,290.4A2.4,2.4,0,0,1,18.4,288M34.4,176L45.6,176A2.4,2.4,0,0,0,48,173.6L48,160L48,144L48,130.4A2.4,2.4,0,0,1,50.4,128L64,128L77.6,128A2.4,2.4,0,0,1,80,130.4L80,141.6A2.4,2.4,0,0,0,82.4,144L93.6,144A2.4,2.4,0,0,1,96,146.4L96,157.6A2.4,2.4,0,0,1,93.6,160L80,160L66.4,160A2.4,2.4,0,0,0,64,162.4L64,176L64,192L64,208L64,224L64,237.6A2.4,2.4,0,0,1,61.6,240L50.4,240A2.4,2.4,0,0,1,48,237.6L48,224L48,208L48,194.4A2.4,2.4,0,0,0,45.6,192L34.4,192A2.4,2.4,0,0,1,32,189.6L32,178.4A2.4,2.4,0,0,1,34.4,176M34.4,240L45.6,240A2.4,2.4,0,0,1,48,242.4L48,253.6A2.4,2.4,0,0,1,45.6,256L34.4,256A2.4,2.4,0,0,1,32,253.6L32,242.4A2.4,2.4,0,0,1,34.4,240M34.4,320L45.6,320A2.4,2.4,0,0,0,48,317.6L48,306.4A2.4,2.4,0,0,1,50.4,304L61.6,304A2.4,2.4,0,0,0,64,301.6L64,288L64,274.4A2.4,2.4,0,0,1,66.4,272L80,272L93.6,272A2.4,2.4,0,0,1,96,274.4L96,285.6A2.4,2.4,0,0,1,93.6,288L82.4,288A2.4,2.4,0,0,0,80,290.4L80,304L80,317.6A2.4,2.4,0,0,0,82.4,320L96,320L109.6,320A2.4,2.4,0,0,1,112,322.4L112,333.6A2.4,2.4,0,0,1,109.6,336L96,336L80,336L66.4,336A2.4,2.4,0,0,0,64,338.4L64,349.6A2.4,2.4,0,0,1,61.6,352L50.4,352A2.4,2.4,0,0,1,48,349.6L48,338.4A2.4,2.4,0,0,0,45.6,336L34.4,336A2.4,2.4,0,0,1,32,333.6L32,322.4A2.4,2.4,0,0,1,34.4,320M50.4,256L61.6,256A2.4,2.4,0,0,1,64,258.4L64,269.6A2.4,2.4,0,0,1,61.6,272L50.4,272A2.4,2.4,0,0,1,48,269.6L48,258.4A2.4,2.4,0,0,1,50.4,256M66.4,240L77.6,240A2.4,2.4,0,0,1,80,242.4L80,253.6A2.4,2.4,0,0,1,77.6,256L66.4,256A2.4,2.4,0,0,1,64,253.6L64,242.4A2.4,2.4,0,0,1,66.4,240M66.4,368L77.6,368A2.4,2.4,0,0,1,80,370.4L80,381.6A2.4,2.4,0,0,1,77.6,384L66.4,384A2.4,2.4,0,0,1,64,381.6L64,370.4A2.4,2.4,0,0,1,66.4,368M82.4,176L93.6,176A2.4,2.4,0,0,1,96,178.4L96,189.6A2.4,2.4,0,0,1,93.6,192L82.4,192A2.4,2.4,0,0,1,80,189.6L80,178.4A2.4,2.4,0,0,1,82.4,176M82.4,208L93.6,208A2.4,2.4,0,0,1,96,210.4L96,221.6A2.4,2.4,0,0,1,93.6,224L82.4,224A2.4,2.4,0,0,1,80,221.6L80,210.4A2.4,2.4,0,0,1,82.4,208M82.4,352L96,352L109.6,352A2.4,2.4,0,0,0,112,349.6L112,338.4A2.4,2.4,0,0,1,114.4,336L128,336L141.6,336A2.4,2.4,0,0,1,144,338.4L144,349.6A2.4,2.4,0,0,1,141.6,352L130.4,352A2.4,2.4,0,0,0,128,354.4L128,365.6A2.4,2.4,0,0,0,130.4,368L141.6,368A2.4,2.4,0,0,1,144,370.4L144,381.6A2.4,2.4,0,0,0,146.4,384L157.6,384A2.4,2.4,0,0,0,160,381.6L160,368L160,352L160,338.4A2.4,2.4,0,0,1,162.4,336L176,336L189.6,336A2.4,2.4,0,0,0,192,333.6L192,320L192,306.4A2.4,2.4,0,0,1,194.4,304L205.6,304A2.4,2.4,0,0,1,208,306.4L208,320L208,333.6A2.4,2.4,0,0,0,210.4,336L221.6,336A2.4,2.4,0,0,1,224,338.4L224,349.6A2.4,2.4,0,0,1,221.6,352L210.4,352A2.4,2.4,0,0,0,208,354.4L208,365.6A2.4,2.4,0,0,1,205.6,368L194.4,368A2.4,2.4,0,0,1,192,365.6L192,354.4A2.4,2.4,0,0,0,189.6,352L178.4,352A2.4,2.4,0,0,0,176,354.4L176,365.6A2.4,2.4,0,0,0,178.4,368L189.6,368A2.4,2.4,0,0,1,192,370.4L192,381.6A2.4,2.4,0,0,1,189.6,384L178.4,384A2.4,2.4,0,0,0,176,386.4L176,397.6A2.4,2.4,0,0,1,173.6,400L162.4,400A2.4,2.4,0,0,0,160,402.4L160,416L160,432L160,445.6A2.4,2.4,0,0,1,157.6,448L146.4,448A2.4,2.4,0,0,1,144,445.6L144,434.4A2.4,2.4,0,0,0,141.6,432L130.4,432A2.4,2.4,0,0,1,128,429.6L128,416L128,400L128,386.4A2.4,2.4,0,0,0,125.6,384L114.4,384A2.4,2.4,0,0,1,112,381.6L112,370.4A2.4,2.4,0,0,0,109.6,368L96,368L82.4,368A2.4,2.4,0,0,1,80,365.6L80,354.4A2.4,2.4,0,0,1,82.4,352M82.4,384L96,384L109.6,384A2.4,2.4,0,0,1,112,386.4L112,397.6A2.4,2.4,0,0,1,109.6,400L96,400L82.4,400A2.4,2.4,0,0,1,80,397.6L80,386.4A2.4,2.4,0,0,1,82.4,384M98.4,128L112,128L125.6,128A2.4,2.4,0,0,1,128,130.4L128,141.6A2.4,2.4,0,0,1,125.6,144L112,144L98.4,144A2.4,2.4,0,0,1,96,141.6L96,130.4A2.4,2.4,0,0,1,98.4,128M98.4,160L109.6,160A2.4,2.4,0,0,1,112,162.4L112,173.6A2.4,2.4,0,0,1,109.6,176L98.4,176A2.4,2.4,0,0,1,96,173.6L96,162.4A2.4,2.4,0,0,1,98.4,160M98.4,192L109.6,192A2.4,2.4,0,0,1,112,194.4L112,205.6A2.4,2.4,0,0,1,109.6,208L98.4,208A2.4,2.4,0,0,1,96,205.6L96,194.4A2.4,2.4,0,0,1,98.4,192M98.4,224L112,224L125.6,224A2.4,2.4,0,0,1,128,226.4L128,237.6A2.4,2.4,0,0,0,130.4,240L144,240L157.6,240A2.4,2.4,0,0,1,160,242.4L160,253.6A2.4,2.4,0,0,0,162.4,256L173.6,256A2.4,2.4,0,0,1,176,258.4L176,272L176,288L176,304L176,317.6A2.4,2.4,0,0,1,173.6,320L160,320L144,320L128,320L114.4,320A2.4,2.4,0,0,1,112,317.6L112,306.4A2.4,2.4,0,0,0,109.6,304L98.4,304A2.4,2.4,0,0,1,96,301.6L96,290.4A2.4,2.4,0,0,1,98.4,288L112,288L125.6,288A2.4,2.4,0,0,1,128,290.4L128,301.6A2.4,2.4,0,0,0,130.4,304L144,304L157.6,304A2.4,2.4,0,0,0,160,301.6L160,288L160,274.4A2.4,2.4,0,0,0,157.6,272L146.4,272A2.4,2.4,0,0,1,144,269.6L144,258.4A2.4,2.4,0,0,0,141.6,256L130.4,256A2.4,2.4,0,0,0,128,258.4L128,269.6A2.4,2.4,0,0,1,125.6,272L112,272L98.4,272A2.4,2.4,0,0,1,96,269.6L96,258.4A2.4,2.4,0,0,1,98.4,256L109.6,256A2.4,2.4,0,0,0,112,253.6L112,242.4A2.4,2.4,0,0,0,109.6,240L98.4,240A2.4,2.4,0,0,1,96,237.6L96,226.4A2.4,2.4,0,0,1,98.4,224M130.4,32L144,32L157.6,32A2.4,2.4,0,0,0,160,29.6L160,18.4A2.4,2.4,0,0,1,162.4,16L173.6,16A2.4,2.4,0,0,0,176,13.6L176,2.4A2.4,2.4,0,0,1,178.4,0L189.6,0A2.4,2.4,0,0,1,192,2.4L192,16L192,29.6A2.4,2.4,0,0,0,194.4,32L205.6,32A2.4,2.4,0,0,1,208,34.4L208,48L208,61.6A2.4,2.4,0,0,1,205.6,64L194.4,64A2.4,2.4,0,0,1,192,61.6L192,50.4A2.4,2.4,0,0,0,189.6,48L178.4,48A2.4,2.4,0,0,0,176,50.4L176,64L176,77.6A2.4,2.4,0,0,1,173.6,80L162.4,80A2.4,2.4,0,0,1,160,77.6L160,64L160,50.4A2.4,2.4,0,0,0,157.6,48L146.4,48A2.4,2.4,0,0,0,144,50.4L144,61.6A2.4,2.4,0,0,1,141.6,64L130.4,64A2.4,2.4,0,0,1,128,61.6L128,48L128,34.4A2.4,2.4,0,0,1,130.4,32M130.4,96L141.6,96A2.4,2.4,0,0,1,144,98.4L144,109.6A2.4,2.4,0,0,1,141.6,112L130.4,112A2.4,2.4,0,0,1,128,109.6L128,98.4A2.4,2.4,0,0,1,130.4,96M130.4,144L141.6,144A2.4,2.4,0,0,0,144,141.6L144,130.4A2.4,2.4,0,0,1,146.4,128L157.6,128A2.4,2.4,0,0,0,160,125.6L160,112L160,98.4A2.4,2.4,0,0,1,162.4,96L173.6,96A2.4,2.4,0,0,1,176,98.4L176,109.6A2.4,2.4,0,0,0,178.4,112L189.6,112A2.4,2.4,0,0,1,192,114.4L192,125.6A2.4,2.4,0,0,1,189.6,128L178.4,128A2.4,2.4,0,0,0,176,130.4L176,141.6A2.4,2.4,0,0,0,178.4,144L189.6,144A2.4,2.4,0,0,1,192,146.4L192,157.6A2.4,2.4,0,0,1,189.6,160L178.4,160A2.4,2.4,0,0,0,176,162.4L176,176L176,189.6A2.4,2.4,0,0,1,173.6,192L162.4,192A2.4,2.4,0,0,0,160,194.4L160,205.6A2.4,2.4,0,0,0,162.4,208L176,208L189.6,208A2.4,2.4,0,0,1,192,210.4L192,224L192,237.6A2.4,2.4,0,0,1,189.6,240L176,240L162.4,240A2.4,2.4,0,0,1,160,237.6L160,226.4A2.4,2.4,0,0,0,157.6,224L146.4,224A2.4,2.4,0,0,1,144,221.6L144,210.4A2.4,2.4,0,0,0,141.6,208L130.4,208A2.4,2.4,0,0,1,128,205.6L128,194.4A2.4,2.4,0,0,1,130.4,192L141.6,192A2.4,2.4,0,0,0,144,189.6L144,178.4A2.4,2.4,0,0,1,146.4,176L157.6,176A2.4,2.4,0,0,0,160,173.6L160,162.4A2.4,2.4,0,0,0,157.6,160L146.4,160A2.4,2.4,0,0,0,144,162.4L144,173.6A2.4,2.4,0,0,1,141.6,176L130.4,176A2.4,2.4,0,0,1,128,173.6L128,160L128,146.4A2.4,2.4,0,0,1,130.4,144M130.4,448L141.6,448A2.4,2.4,0,0,1,144,450.4L144,461.6A2.4,2.4,0,0,0,146.4,464L157.6,464A2.4,2.4,0,0,1,160,466.4L160,477.6A2.4,2.4,0,0,1,157.6,480L144,480L130.4,480A2.4,2.4,0,0,1,128,477.6L128,464L128,450.4A2.4,2.4,0,0,1,130.4,448M146.4,0L157.6,0A2.4,2.4,0,0,1,160,2.4L160,13.6A2.4,2.4,0,0,1,157.6,16L146.4,16A2.4,2.4,0,0,1,144,13.6L144,2.4A2.4,2.4,0,0,1,146.4,0M146.4,80L157.6,80A2.4,2.4,0,0,1,160,82.4L160,93.6A2.4,2.4,0,0,1,157.6,96L146.4,96A2.4,2.4,0,0,1,144,93.6L144,82.4A2.4,2.4,0,0,1,146.4,80M146.4,496L157.6,496A2.4,2.4,0,0,1,160,498.4L160,509.6A2.4,2.4,0,0,0,162.4,512L173.6,512A2.4,2.4,0,0,1,176,514.4L176,525.6A2.4,2.4,0,0,1,173.6,528L160,528L146.4,528A2.4,2.4,0,0,1,144,525.6L144,512L144,498.4A2.4,2.4,0,0,1,146.4,496M162.4,480L173.6,480A2.4,2.4,0,0,1,176,482.4L176,493.6A2.4,2.4,0,0,1,173.6,496L162.4,496A2.4,2.4,0,0,1,160,493.6L160,482.4A2.4,2.4,0,0,1,162.4,480M178.4,400L189.6,400A2.4,2.4,0,0,1,192,402.4L192,413.6A2.4,2.4,0,0,1,189.6,416L178.4,416A2.4,2.4,0,0,1,176,413.6L176,402.4A2.4,2.4,0,0,1,178.4,400M178.4,448L189.6,448A2.4,2.4,0,0,0,192,445.6L192,434.4A2.4,2.4,0,0,1,194.4,432L205.6,432A2.4,2.4,0,0,1,208,434.4L208,445.6A2.4,2.4,0,0,0,210.4,448L221.6,448A2.4,2.4,0,0,0,224,445.6L224,434.4A2.4,2.4,0,0,0,221.6,432L210.4,432A2.4,2.4,0,0,1,208,429.6L208,416L208,402.4A2.4,2.4,0,0,1,210.4,400L221.6,400A2.4,2.4,0,0,1,224,402.4L224,413.6A2.4,2.4,0,0,0,226.4,416L240,416L256,416L272,416L288,416L301.6,416A2.4,2.4,0,0,1,304,418.4L304,429.6A2.4,2.4,0,0,1,301.6,432L288,432L274.4,432A2.4,2.4,0,0,0,272,434.4L272,445.6A2.4,2.4,0,0,1,269.6,448L258.4,448A2.4,2.4,0,0,1,256,445.6L256,434.4A2.4,2.4,0,0,0,253.6,432L242.4,432A2.4,2.4,0,0,0,240,434.4L240,448L240,464L240,477.6A2.4,2.4,0,0,0,242.4,480L253.6,480A2.4,2.4,0,0,1,256,482.4L256,493.6A2.4,2.4,0,0,1,253.6,496L242.4,496A2.4,2.4,0,0,0,240,498.4L240,509.6A2.4,2.4,0,0,0,242.4,512L253.6,512A2.4,2.4,0,0,1,256,514.4L256,525.6A2.4,2.4,0,0,1,253.6,528L240,528L224,528L208,528L194.4,528A2.4,2.4,0,0,1,192,525.6L192,514.4A2.4,2.4,0,0,1,194.4,512L205.6,512A2.4,2.4,0,0,0,208,509.6L208,498.4A2.4,2.4,0,0,1,210.4,496L221.6,496A2.4,2.4,0,0,0,224,493.6L224,480L224,466.4A2.4,2.4,0,0,0,221.6,464L210.4,464A2.4,2.4,0,0,0,208,466.4L208,480L208,493.6A2.4,2.4,0,0,1,205.6,496L194.4,496A2.4,2.4,0,0,1,192,493.6L192,480L192,466.4A2.4,2.4,0,0,0,189.6,464L178.4,464A2.4,2.4,0,0,1,176,461.6L176,450.4A2.4,2.4,0,0,1,178.4,448M178.4,496L189.6,496A2.4,2.4,0,0,1,192,498.4L192,509.6A2.4,2.4,0,0,1,189.6,512L178.4,512A2.4,2.4,0,0,1,176,509.6L176,498.4A2.4,2.4,0,0,1,178.4,496M194.4,80L205.6,80A2.4,2.4,0,0,0,208,77.6L208,66.4A2.4,2.4,0,0,1,210.4,64L221.6,64A2.4,2.4,0,0,0,224,61.6L224,48L224,34.4A2.4,2.4,0,0,1,226.4,32L237.6,32A2.4,2.4,0,0,0,240,29.6L240,18.4A2.4,2.4,0,0,1,242.4,16L253.6,16A2.4,2.4,0,0,0,256,13.6L256,2.4A2.4,2.4,0,0,1,258.4,0L272,0L285.6,0A2.4,2.4,0,0,1,288,2.4L288,13.6A2.4,2.4,0,0,1,285.6,16L274.4,16A2.4,2.4,0,0,0,272,18.4L272,29.6A2.4,2.4,0,0,1,269.6,32L258.4,32A2.4,2.4,0,0,0,256,34.4L256,45.6A2.4,2.4,0,0,0,258.4,48L272,48L285.6,48A2.4,2.4,0,0,1,288,50.4L288,61.6A2.4,2.4,0,0,1,285.6,64L272,64L258.4,64A2.4,2.4,0,0,0,256,66.4L256,77.6A2.4,2.4,0,0,0,258.4,80L269.6,80A2.4,2.4,0,0,1,272,82.4L272,96L272,109.6A2.4,2.4,0,0,1,269.6,112L258.4,112A2.4,2.4,0,0,1,256,109.6L256,98.4A2.4,2.4,0,0,0,253.6,96L242.4,96A2.4,2.4,0,0,1,240,93.6L240,82.4A2.4,2.4,0,0,0,237.6,80L226.4,80A2.4,2.4,0,0,0,224,82.4L224,93.6A2.4,2.4,0,0,1,221.6,96L210.4,96A2.4,2.4,0,0,0,208,98.4L208,109.6A2.4,2.4,0,0,1,205.6,112L194.4,112A2.4,2.4,0,0,1,192,109.6L192,96L192,82.4A2.4,2.4,0,0,1,194.4,80M194.4,128L205.6,128A2.4,2.4,0,0,1,208,130.4L208,141.6A2.4,2.4,0,0,1,205.6,144L194.4,144A2.4,2.4,0,0,1,192,141.6L192,130.4A2.4,2.4,0,0,1,194.4,128M194.4,176L205.6,176A2.4,2.4,0,0,1,208,178.4L208,189.6A2.4,2.4,0,0,1,205.6,192L194.4,192A2.4,2.4,0,0,1,192,189.6L192,178.4A2.4,2.4,0,0,1,194.4,176M194.4,256L205.6,256A2.4,2.4,0,0,1,208,258.4L208,269.6A2.4,2.4,0,0,0,210.4,272L224,272L237.6,272A2.4,2.4,0,0,1,240,274.4L240,285.6A2.4,2.4,0,0,1,237.6,288L224,288L208,288L194.4,288A2.4,2.4,0,0,1,192,285.6L192,272L192,258.4A2.4,2.4,0,0,1,194.4,256M210.4,0L221.6,0A2.4,2.4,0,0,1,224,2.4L224,16L224,29.6A2.4,2.4,0,0,1,221.6,32L210.4,32A2.4,2.4,0,0,1,208,29.6L208,16L208,2.4A2.4,2.4,0,0,1,210.4,0M210.4,144L221.6,144A2.4,2.4,0,0,1,224,146.4L224,160L224,173.6A2.4,2.4,0,0,1,221.6,176L210.4,176A2.4,2.4,0,0,1,208,173.6L208,160L208,146.4A2.4,2.4,0,0,1,210.4,144M210.4,192L224,192L237.6,192A2.4,2.4,0,0,1,240,194.4L240,208L240,224L240,237.6A2.4,2.4,0,0,1,237.6,240L224,240L210.4,240A2.4,2.4,0,0,1,208,237.6L208,224L208,208L208,194.4A2.4,2.4,0,0,1,210.4,192M210.4,368L221.6,368A2.4,2.4,0,0,0,224,365.6L224,354.4A2.4,2.4,0,0,1,226.4,352L237.6,352A2.4,2.4,0,0,1,240,354.4L240,365.6A2.4,2.4,0,0,0,242.4,368L256,368L269.6,368A2.4,2.4,0,0,1,272,370.4L272,384L272,397.6A2.4,2.4,0,0,1,269.6,400L258.4,400A2.4,2.4,0,0,1,256,397.6L256,386.4A2.4,2.4,0,0,0,253.6,384L242.4,384A2.4,2.4,0,0,0,240,386.4L240,397.6A2.4,2.4,0,0,1,237.6,400L226.4,400A2.4,2.4,0,0,1,224,397.6L224,386.4A2.4,2.4,0,0,0,221.6,384L210.4,384A2.4,2.4,0,0,1,208,381.6L208,370.4A2.4,2.4,0,0,1,210.4,368M226.4,96L237.6,96A2.4,2.4,0,0,1,240,98.4L240,109.6A2.4,2.4,0,0,0,242.4,112L253.6,112A2.4,2.4,0,0,1,256,114.4L256,125.6A2.4,2.4,0,0,0,258.4,128L272,128L285.6,128A2.4,2.4,0,0,0,288,125.6L288,112L288,96L288,82.4A2.4,2.4,0,0,1,290.4,80L304,80L317.6,80A2.4,2.4,0,0,1,320,82.4L320,93.6A2.4,2.4,0,0,1,317.6,96L306.4,96A2.4,2.4,0,0,0,304,98.4L304,112L304,125.6A2.4,2.4,0,0,0,306.4,128L317.6,128A2.4,2.4,0,0,1,320,130.4L320,141.6A2.4,2.4,0,0,1,317.6,144L304,144L290.4,144A2.4,2.4,0,0,0,288,146.4L288,157.6A2.4,2.4,0,0,1,285.6,160L274.4,160A2.4,2.4,0,0,1,272,157.6L272,146.4A2.4,2.4,0,0,0,269.6,144L258.4,144A2.4,2.4,0,0,0,256,146.4L256,157.6A2.4,2.4,0,0,0,258.4,160L269.6,160A2.4,2.4,0,0,1,272,162.4L272,173.6A2.4,2.4,0,0,1,269.6,176L256,176L242.4,176A2.4,2.4,0,0,1,240,173.6L240,160L240,146.4A2.4,2.4,0,0,0,237.6,144L226.4,144A2.4,2.4,0,0,1,224,141.6L224,128L224,112L224,98.4A2.4,2.4,0,0,1,226.4,96M226.4,304L237.6,304A2.4,2.4,0,0,1,240,306.4L240,317.6A2.4,2.4,0,0,0,242.4,320L253.6,320A2.4,2.4,0,0,0,256,317.6L256,306.4A2.4,2.4,0,0,1,258.4,304L269.6,304A2.4,2.4,0,0,1,272,306.4L272,320L272,336L272,349.6A2.4,2.4,0,0,1,269.6,352L256,352L242.4,352A2.4,2.4,0,0,1,240,349.6L240,338.4A2.4,2.4,0,0,0,237.6,336L226.4,336A2.4,2.4,0,0,1,224,333.6L224,320L224,306.4A2.4,2.4,0,0,1,226.4,304M242.4,256L253.6,256A2.4,2.4,0,0,1,256,258.4L256,269.6A2.4,2.4,0,0,1,253.6,272L242.4,272A2.4,2.4,0,0,1,240,269.6L240,258.4A2.4,2.4,0,0,1,242.4,256M242.4,288L253.6,288A2.4,2.4,0,0,1,256,290.4L256,301.6A2.4,2.4,0,0,1,253.6,304L242.4,304A2.4,2.4,0,0,1,240,301.6L240,290.4A2.4,2.4,0,0,1,242.4,288M258.4,192L269.6,192A2.4,2.4,0,0,1,272,194.4L272,205.6A2.4,2.4,0,0,1,269.6,208L258.4,208A2.4,2.4,0,0,1,256,205.6L256,194.4A2.4,2.4,0,0,1,258.4,192M258.4,272L272,272L288,272L301.6,272A2.4,2.4,0,0,1,304,274.4L304,288L304,301.6A2.4,2.4,0,0,0,306.4,304L320,304L333.6,304A2.4,2.4,0,0,1,336,306.4L336,320L336,333.6A2.4,2.4,0,0,1,333.6,336L322.4,336A2.4,2.4,0,0,1,320,333.6L320,322.4A2.4,2.4,0,0,0,317.6,320L306.4,320A2.4,2.4,0,0,0,304,322.4L304,333.6A2.4,2.4,0,0,1,301.6,336L290.4,336A2.4,2.4,0,0,1,288,333.6L288,320L288,306.4A2.4,2.4,0,0,0,285.6,304L274.4,304A2.4,2.4,0,0,1,272,301.6L272,290.4A2.4,2.4,0,0,0,269.6,288L258.4,288A2.4,2.4,0,0,1,256,285.6L256,274.4A2.4,2.4,0,0,1,258.4,272M258.4,496L269.6,496A2.4,2.4,0,0,0,272,493.6L272,480L272,464L272,450.4A2.4,2.4,0,0,1,274.4,448L288,448L301.6,448A2.4,2.4,0,0,1,304,450.4L304,461.6A2.4,2.4,0,0,1,301.6,464L290.4,464A2.4,2.4,0,0,0,288,466.4L288,480L288,493.6A2.4,2.4,0,0,0,290.4,496L301.6,496A2.4,2.4,0,0,0,304,493.6L304,480L304,466.4A2.4,2.4,0,0,1,306.4,464L317.6,464A2.4,2.4,0,0,1,320,466.4L320,477.6A2.4,2.4,0,0,0,322.4,480L333.6,480A2.4,2.4,0,0,1,336,482.4L336,493.6A2.4,2.4,0,0,1,333.6,496L322.4,496A2.4,2.4,0,0,0,320,498.4L320,509.6A2.4,2.4,0,0,1,317.6,512L304,512L288,512L272,512L258.4,512A2.4,2.4,0,0,1,256,509.6L256,498.4A2.4,2.4,0,0,1,258.4,496M274.4,176L285.6,176A2.4,2.4,0,0,1,288,178.4L288,189.6A2.4,2.4,0,0,1,285.6,192L274.4,192A2.4,2.4,0,0,1,272,189.6L272,178.4A2.4,2.4,0,0,1,274.4,176M274.4,240L285.6,240A2.4,2.4,0,0,0,288,237.6L288,226.4A2.4,2.4,0,0,1,290.4,224L301.6,224A2.4,2.4,0,0,1,304,226.4L304,240L304,253.6A2.4,2.4,0,0,1,301.6,256L288,256L274.4,256A2.4,2.4,0,0,1,272,253.6L272,242.4A2.4,2.4,0,0,1,274.4,240M290.4,16L301.6,16A2.4,2.4,0,0,1,304,18.4L304,29.6A2.4,2.4,0,0,1,301.6,32L290.4,32A2.4,2.4,0,0,1,288,29.6L288,18.4A2.4,2.4,0,0,1,290.4,16M290.4,160L301.6,160A2.4,2.4,0,0,1,304,162.4L304,173.6A2.4,2.4,0,0,1,301.6,176L290.4,176A2.4,2.4,0,0,1,288,173.6L288,162.4A2.4,2.4,0,0,1,290.4,160M290.4,192L301.6,192A2.4,2.4,0,0,0,304,189.6L304,178.4A2.4,2.4,0,0,1,306.4,176L320,176L333.6,176A2.4,2.4,0,0,1,336,178.4L336,189.6A2.4,2.4,0,0,1,333.6,192L322.4,192A2.4,2.4,0,0,0,320,194.4L320,205.6A2.4,2.4,0,0,0,322.4,208L333.6,208A2.4,2.4,0,0,0,336,205.6L336,194.4A2.4,2.4,0,0,1,338.4,192L352,192L365.6,192A2.4,2.4,0,0,1,368,194.4L368,205.6A2.4,2.4,0,0,0,370.4,208L381.6,208A2.4,2.4,0,0,0,384,205.6L384,194.4A2.4,2.4,0,0,1,386.4,192L397.6,192A2.4,2.4,0,0,1,400,194.4L400,205.6A2.4,2.4,0,0,0,402.4,208L413.6,208A2.4,2.4,0,0,1,416,210.4L416,224L416,237.6A2.4,2.4,0,0,0,418.4,240L429.6,240A2.4,2.4,0,0,1,432,242.4L432,256L432,269.6A2.4,2.4,0,0,1,429.6,272L418.4,272A2.4,2.4,0,0,0,416,274.4L416,285.6A2.4,2.4,0,0,1,413.6,288L400,288L386.4,288A2.4,2.4,0,0,1,384,285.6L384,274.4A2.4,2.4,0,0,1,386.4,272L397.6,272A2.4,2.4,0,0,0,400,269.6L400,258.4A2.4,2.4,0,0,0,397.6,256L386.4,256A2.4,2.4,0,0,1,384,253.6L384,242.4A2.4,2.4,0,0,1,386.4,240L397.6,240A2.4,2.4,0,0,0,400,237.6L400,226.4A2.4,2.4,0,0,0,397.6,224L384,224L368,224L352,224L336,224L320,224L306.4,224A2.4,2.4,0,0,1,304,221.6L304,210.4A2.4,2.4,0,0,0,301.6,208L290.4,208A2.4,2.4,0,0,1,288,205.6L288,194.4A2.4,2.4,0,0,1,290.4,192M290.4,352L301.6,352A2.4,2.4,0,0,1,304,354.4L304,365.6A2.4,2.4,0,0,0,306.4,368L317.6,368A2.4,2.4,0,0,0,320,365.6L320,354.4A2.4,2.4,0,0,1,322.4,352L333.6,352A2.4,2.4,0,0,0,336,349.6L336,338.4A2.4,2.4,0,0,1,338.4,336L349.6,336A2.4,2.4,0,0,1,352,338.4L352,349.6A2.4,2.4,0,0,0,354.4,352L368,352L381.6,352A2.4,2.4,0,0,1,384,354.4L384,365.6A2.4,2.4,0,0,0,386.4,368L397.6,368A2.4,2.4,0,0,1,400,370.4L400,381.6A2.4,2.4,0,0,0,402.4,384L416,384L429.6,384A2.4,2.4,0,0,0,432,381.6L432,370.4A2.4,2.4,0,0,0,429.6,368L418.4,368A2.4,2.4,0,0,1,416,365.6L416,352L416,336L416,322.4A2.4,2.4,0,0,1,418.4,320L429.6,320A2.4,2.4,0,0,0,432,317.6L432,304L432,290.4A2.4,2.4,0,0,1,434.4,288L445.6,288A2.4,2.4,0,0,1,448,290.4L448,304L448,320L448,333.6A2.4,2.4,0,0,1,445.6,336L434.4,336A2.4,2.4,0,0,0,432,338.4L432,349.6A2.4,2.4,0,0,0,434.4,352L445.6,352A2.4,2.4,0,0,1,448,354.4L448,365.6A2.4,2.4,0,0,0,450.4,368L461.6,368A2.4,2.4,0,0,1,464,370.4L464,384L464,397.6A2.4,2.4,0,0,0,466.4,400L480,400L496,400L509.6,400A2.4,2.4,0,0,1,512,402.4L512,413.6A2.4,2.4,0,0,1,509.6,416L496,416L482.4,416A2.4,2.4,0,0,0,480,418.4L480,429.6A2.4,2.4,0,0,1,477.6,432L466.4,432A2.4,2.4,0,0,0,464,434.4L464,448L464,461.6A2.4,2.4,0,0,1,461.6,464L450.4,464A2.4,2.4,0,0,0,448,466.4L448,477.6A2.4,2.4,0,0,1,445.6,480L434.4,480A2.4,2.4,0,0,1,432,477.6L432,466.4A2.4,2.4,0,0,0,429.6,464L418.4,464A2.4,2.4,0,0,0,416,466.4L416,477.6A2.4,2.4,0,0,1,413.6,480L402.4,480A2.4,2.4,0,0,1,400,477.6L400,466.4A2.4,2.4,0,0,0,397.6,464L386.4,464A2.4,2.4,0,0,0,384,466.4L384,477.6A2.4,2.4,0,0,0,386.4,480L397.6,480A2.4,2.4,0,0,1,400,482.4L400,493.6A2.4,2.4,0,0,1,397.6,496L386.4,496A2.4,2.4,0,0,0,384,498.4L384,509.6A2.4,2.4,0,0,0,386.4,512L400,512L413.6,512A2.4,2.4,0,0,1,416,514.4L416,525.6A2.4,2.4,0,0,1,413.6,528L400,528L384,528L370.4,528A2.4,2.4,0,0,1,368,525.6L368,514.4A2.4,2.4,0,0,0,365.6,512L354.4,512A2.4,2.4,0,0,1,352,509.6L352,498.4A2.4,2.4,0,0,1,354.4,496L365.6,496A2.4,2.4,0,0,0,368,493.6L368,482.4A2.4,2.4,0,0,0,365.6,480L352,480L338.4,480A2.4,2.4,0,0,1,336,477.6L336,466.4A2.4,2.4,0,0,0,333.6,464L322.4,464A2.4,2.4,0,0,1,320,461.6L320,450.4A2.4,2.4,0,0,1,322.4,448L333.6,448A2.4,2.4,0,0,0,336,445.6L336,434.4A2.4,2.4,0,0,1,338.4,432L352,432L365.6,432A2.4,2.4,0,0,1,368,434.4L368,445.6A2.4,2.4,0,0,0,370.4,448L381.6,448A2.4,2.4,0,0,0,384,445.6L384,434.4A2.4,2.4,0,0,0,381.6,432L370.4,432A2.4,2.4,0,0,1,368,429.6L368,418.4A2.4,2.4,0,0,0,365.6,416L352,416L338.4,416A2.4,2.4,0,0,0,336,418.4L336,429.6A2.4,2.4,0,0,1,333.6,432L322.4,432A2.4,2.4,0,0,1,320,429.6L320,418.4A2.4,2.4,0,0,0,317.6,416L306.4,416A2.4,2.4,0,0,1,304,413.6L304,402.4A2.4,2.4,0,0,1,306.4,400L320,400L336,400L352,400L365.6,400A2.4,2.4,0,0,0,368,397.6L368,384L368,370.4A2.4,2.4,0,0,0,365.6,368L352,368L338.4,368A2.4,2.4,0,0,0,336,370.4L336,381.6A2.4,2.4,0,0,1,333.6,384L320,384L306.4,384A2.4,2.4,0,0,0,304,386.4L304,397.6A2.4,2.4,0,0,1,301.6,400L290.4,400A2.4,2.4,0,0,1,288,397.6L288,384L288,368L288,354.4A2.4,2.4,0,0,1,290.4,352M306.4,0L320,0L333.6,0A2.4,2.4,0,0,1,336,2.4L336,13.6A2.4,2.4,0,0,0,338.4,16L349.6,16A2.4,2.4,0,0,0,352,13.6L352,2.4A2.4,2.4,0,0,1,354.4,0L365.6,0A2.4,2.4,0,0,1,368,2.4L368,16L368,29.6A2.4,2.4,0,0,1,365.6,32L354.4,32A2.4,2.4,0,0,0,352,34.4L352,45.6A2.4,2.4,0,0,0,354.4,48L365.6,48A2.4,2.4,0,0,0,368,45.6L368,34.4A2.4,2.4,0,0,1,370.4,32L381.6,32A2.4,2.4,0,0,0,384,29.6L384,16L384,2.4A2.4,2.4,0,0,1,386.4,0L397.6,0A2.4,2.4,0,0,1,400,2.4L400,16L400,32L400,48L400,61.6A2.4,2.4,0,0,1,397.6,64L386.4,64A2.4,2.4,0,0,0,384,66.4L384,77.6A2.4,2.4,0,0,1,381.6,80L370.4,80A2.4,2.4,0,0,0,368,82.4L368,96L368,109.6A2.4,2.4,0,0,1,365.6,112L354.4,112A2.4,2.4,0,0,1,352,109.6L352,98.4A2.4,2.4,0,0,0,349.6,96L338.4,96A2.4,2.4,0,0,1,336,93.6L336,82.4A2.4,2.4,0,0,0,333.6,80L322.4,80A2.4,2.4,0,0,1,320,77.6L320,66.4A2.4,2.4,0,0,1,322.4,64L333.6,64A2.4,2.4,0,0,0,336,61.6L336,48L336,34.4A2.4,2.4,0,0,0,333.6,32L322.4,32A2.4,2.4,0,0,1,320,29.6L320,18.4A2.4,2.4,0,0,0,317.6,16L306.4,16A2.4,2.4,0,0,1,304,13.6L304,2.4A2.4,2.4,0,0,1,306.4,0M306.4,32L317.6,32A2.4,2.4,0,0,1,320,34.4L320,45.6A2.4,2.4,0,0,1,317.6,48L306.4,48A2.4,2.4,0,0,1,304,45.6L304,34.4A2.4,2.4,0,0,1,306.4,32M306.4,336L317.6,336A2.4,2.4,0,0,1,320,338.4L320,349.6A2.4,2.4,0,0,1,317.6,352L306.4,352A2.4,2.4,0,0,1,304,349.6L304,338.4A2.4,2.4,0,0,1,306.4,336M322.4,96L333.6,96A2.4,2.4,0,0,1,336,98.4L336,112L336,125.6A2.4,2.4,0,0,1,333.6,128L322.4,128A2.4,2.4,0,0,1,320,125.6L320,112L320,98.4A2.4,2.4,0,0,1,322.4,96M322.4,272L333.6,272A2.4,2.4,0,0,1,336,274.4L336,285.6A2.4,2.4,0,0,1,333.6,288L322.4,288A2.4,2.4,0,0,1,320,285.6L320,274.4A2.4,2.4,0,0,1,322.4,272M322.4,512L333.6,512A2.4,2.4,0,0,1,336,514.4L336,525.6A2.4,2.4,0,0,1,333.6,528L322.4,528A2.4,2.4,0,0,1,320,525.6L320,514.4A2.4,2.4,0,0,1,322.4,512M338.4,160L349.6,160A2.4,2.4,0,0,1,352,162.4L352,173.6A2.4,2.4,0,0,1,349.6,176L338.4,176A2.4,2.4,0,0,1,336,173.6L336,162.4A2.4,2.4,0,0,1,338.4,160M338.4,288L349.6,288A2.4,2.4,0,0,1,352,290.4L352,301.6A2.4,2.4,0,0,1,349.6,304L338.4,304A2.4,2.4,0,0,1,336,301.6L336,290.4A2.4,2.4,0,0,1,338.4,288M354.4,128L365.6,128A2.4,2.4,0,0,0,368,125.6L368,114.4A2.4,2.4,0,0,1,370.4,112L381.6,112A2.4,2.4,0,0,1,384,114.4L384,128L384,144L384,160L384,173.6A2.4,2.4,0,0,1,381.6,176L370.4,176A2.4,2.4,0,0,1,368,173.6L368,160L368,146.4A2.4,2.4,0,0,0,365.6,144L354.4,144A2.4,2.4,0,0,1,352,141.6L352,130.4A2.4,2.4,0,0,1,354.4,128M354.4,272L365.6,272A2.4,2.4,0,0,1,368,274.4L368,285.6A2.4,2.4,0,0,1,365.6,288L354.4,288A2.4,2.4,0,0,1,352,285.6L352,274.4A2.4,2.4,0,0,1,354.4,272M370.4,288L381.6,288A2.4,2.4,0,0,1,384,290.4L384,301.6A2.4,2.4,0,0,0,386.4,304L400,304L413.6,304A2.4,2.4,0,0,1,416,306.4L416,317.6A2.4,2.4,0,0,1,413.6,320L400,320L384,320L370.4,320A2.4,2.4,0,0,1,368,317.6L368,304L368,290.4A2.4,2.4,0,0,1,370.4,288M386.4,80L397.6,80A2.4,2.4,0,0,1,400,82.4L400,96L400,109.6A2.4,2.4,0,0,1,397.6,112L386.4,112A2.4,2.4,0,0,1,384,109.6L384,96L384,82.4A2.4,2.4,0,0,1,386.4,80M386.4,336L397.6,336A2.4,2.4,0,0,1,400,338.4L400,349.6A2.4,2.4,0,0,1,397.6,352L386.4,352A2.4,2.4,0,0,1,384,349.6L384,338.4A2.4,2.4,0,0,1,386.4,336M400,402.4L400,416L400,432L400,445.6A2.4,2.4,0,0,0,402.4,448L416,448L432,448L445.6,448A2.4,2.4,0,0,0,448,445.6L448,432L448,416L448,402.4A2.4,2.4,0,0,0,445.6,400L432,400L416,400L402.4,400A2.4,2.4,0,0,0,400,402.4M402.4,144L413.6,144A2.4,2.4,0,0,1,416,146.4L416,160L416,173.6A2.4,2.4,0,0,1,413.6,176L402.4,176A2.4,2.4,0,0,1,400,173.6L400,160L400,146.4A2.4,2.4,0,0,1,402.4,144M418.4,176L429.6,176A2.4,2.4,0,0,0,432,173.6L432,160L432,146.4A2.4,2.4,0,0,1,434.4,144L448,144L461.6,144A2.4,2.4,0,0,1,464,146.4L464,157.6A2.4,2.4,0,0,1,461.6,160L450.4,160A2.4,2.4,0,0,0,448,162.4L448,173.6A2.4,2.4,0,0,0,450.4,176L461.6,176A2.4,2.4,0,0,1,464,178.4L464,189.6A2.4,2.4,0,0,0,466.4,192L477.6,192A2.4,2.4,0,0,0,480,189.6L480,178.4A2.4,2.4,0,0,1,482.4,176L493.6,176A2.4,2.4,0,0,1,496,178.4L496,189.6A2.4,2.4,0,0,0,498.4,192L509.6,192A2.4,2.4,0,0,0,512,189.6L512,178.4A2.4,2.4,0,0,0,509.6,176L498.4,176A2.4,2.4,0,0,1,496,173.6L496,162.4A2.4,2.4,0,0,1,498.4,160L512,160L525.6,160A2.4,2.4,0,0,1,528,162.4L528,176L528,192L528,205.6A2.4,2.4,0,0,1,525.6,208L514.4,208A2.4,2.4,0,0,0,512,210.4L512,221.6A2.4,2.4,0,0,1,509.6,224L496,224L482.4,224A2.4,2.4,0,0,1,480,221.6L480,210.4A2.4,2.4,0,0,0,477.6,208L464,208L450.4,208A2.4,2.4,0,0,1,448,205.6L448,194.4A2.4,2.4,0,0,0,445.6,192L434.4,192A2.4,2.4,0,0,0,432,194.4L432,205.6A2.4,2.4,0,0,1,429.6,208L418.4,208A2.4,2.4,0,0,1,416,205.6L416,192L416,178.4A2.4,2.4,0,0,1,418.4,176M418.4,416L429.6,416A2.4,2.4,0,0,1,432,418.4L432,429.6A2.4,2.4,0,0,1,429.6,432L418.4,432A2.4,2.4,0,0,1,416,429.6L416,418.4A2.4,2.4,0,0,1,418.4,416M450.4,224L461.6,224A2.4,2.4,0,0,1,464,226.4L464,240L464,253.6A2.4,2.4,0,0,0,466.4,256L477.6,256A2.4,2.4,0,0,0,480,253.6L480,242.4A2.4,2.4,0,0,1,482.4,240L496,240L509.6,240A2.4,2.4,0,0,1,512,242.4L512,253.6A2.4,2.4,0,0,1,509.6,256L498.4,256A2.4,2.4,0,0,0,496,258.4L496,269.6A2.4,2.4,0,0,1,493.6,272L482.4,272A2.4,2.4,0,0,0,480,274.4L480,285.6A2.4,2.4,0,0,0,482.4,288L493.6,288A2.4,2.4,0,0,1,496,290.4L496,304L496,317.6A2.4,2.4,0,0,1,493.6,320L482.4,320A2.4,2.4,0,0,0,480,322.4L480,333.6A2.4,2.4,0,0,1,477.6,336L466.4,336A2.4,2.4,0,0,1,464,333.6L464,320L464,304L464,290.4A2.4,2.4,0,0,0,461.6,288L450.4,288A2.4,2.4,0,0,1,448,285.6L448,272L448,256L448,240L448,226.4A2.4,2.4,0,0,1,450.4,224M450.4,336L461.6,336A2.4,2.4,0,0,1,464,338.4L464,349.6A2.4,2.4,0,0,1,461.6,352L450.4,352A2.4,2.4,0,0,1,448,349.6L448,338.4A2.4,2.4,0,0,1,450.4,336M466.4,128L480,128L493.6,128A2.4,2.4,0,0,1,496,130.4L496,144L496,157.6A2.4,2.4,0,0,1,493.6,160L482.4,160A2.4,2.4,0,0,1,480,157.6L480,146.4A2.4,2.4,0,0,0,477.6,144L466.4,144A2.4,2.4,0,0,1,464,141.6L464,130.4A2.4,2.4,0,0,1,466.4,128M466.4,160L477.6,160A2.4,2.4,0,0,1,480,162.4L480,173.6A2.4,2.4,0,0,1,477.6,176L466.4,176A2.4,2.4,0,0,1,464,173.6L464,162.4A2.4,2.4,0,0,1,466.4,160M482.4,352L496,352L509.6,352A2.4,2.4,0,0,0,512,349.6L512,338.4A2.4,2.4,0,0,1,514.4,336L525.6,336A2.4,2.4,0,0,1,528,338.4L528,352L528,368L528,384L528,397.6A2.4,2.4,0,0,1,525.6,400L514.4,400A2.4,2.4,0,0,1,512,397.6L512,386.4A2.4,2.4,0,0,0,509.6,384L496,384L482.4,384A2.4,2.4,0,0,1,480,381.6L480,368L480,354.4A2.4,2.4,0,0,1,482.4,352M482.4,432L496,432L509.6,432A2.4,2.4,0,0,1,512,434.4L512,448L512,464L512,477.6A2.4,2.4,0,0,1,509.6,480L498.4,480A2.4,2.4,0,0,1,496,477.6L496,464L496,450.4A2.4,2.4,0,0,0,493.6,448L482.4,448A2.4,2.4,0,0,1,480,445.6L480,434.4A2.4,2.4,0,0,1,482.4,432M498.4,272L512,272L525.6,272A2.4,2.4,0,0,1,528,274.4L528,288L528,304L528,317.6A2.4,2.4,0,0,1,525.6,320L514.4,320A2.4,2.4,0,0,1,512,317.6L512,304L512,290.4A2.4,2.4,0,0,0,509.6,288L498.4,288A2.4,2.4,0,0,1,496,285.6L496,274.4A2.4,2.4,0,0,1,498.4,272M498.4,320L509.6,320A2.4,2.4,0,0,1,512,322.4L512,333.6A2.4,2.4,0,0,1,509.6,336L498.4,336A2.4,2.4,0,0,1,496,333.6L496,322.4A2.4,2.4,0,0,1,498.4,320Z" />
<path d="M4.7253,9.0689C6.179,9.0436 6.4149,7.6154 6.4149,6.769C6.4149,5.5163 5.775,5.0788 5,5C4.0425,5.4242 3.3403,6.146 3.2555,7.2606C3.2416,7.4443 3.237,7.6894 3.2516,7.9757C3.2906,8.7383 3.8493,9.0843 4.7253,9.0689 M 12.2447 10.8068 C 11.2047 10.8068 10.1118 10.1673 10.06 8.9707 C 8.8774 10.2223 7.0538 10.8186 4.7253 10.8186 C 2.3769 10.8186 1.396 9.2175 1.396 7.9703 C 1.4554 3.8126 1.3605 2.255 1.341 1.9353 C 1.3393 1.907 1.3381 1.8884 1.3377 1.8785 L 1.3373 1.8677 C 1.3313 1.7096 1.3224 1.4733 1.172 1.4572 C 1.0786 1.4472 1.0183 1.4757 0.911 1.6094 C 0.75 1.8233 0.425 1.908 0.2273 1.7937 C -0.0116 1.6555 -0.0562 1.3505 0.0647 1.0697 C 0.4002 0.3212 0.9379 -0.01 1.6625 0.0003 C 2.9146 0.0182 3.2738 0.8359 3.2738 1.8575 C 3.2738 1.8575 3.246 3.3292 3.246 4.1579 C 3.689 3.7969 4.3397 3.4098 5.4266 3.4098 C 7.6899 3.4098 9.1267 6.2118 7.6503 8.8925 C 9.5428 8.0197 9.9378 6.5164 10.0112 5.0238 L 10.0043 4.5203 C 10.0043 3.9552 10.3688 3.4767 10.9361 3.4767 C 11.5034 3.4767 11.8802 3.9877 11.86 4.5271 C 11.7919 6.3438 11.7644 7.5395 11.7644 8.1722 C 11.7644 8.5384 11.9642 9.0996 12.5555 9.0996 C 13.7134 9.0996 14.094 8.1922 14.1838 6.0595 C 14.1885 5.2642 14.1927 4.5997 14.1927 4.5997 C 13.6679 4.5997 13.4094 4.324 13.4094 3.9795 C 13.4094 3.635 13.683 3.3163 14.1321 3.3163 C 14.1321 3.3163 14.133 2.1182 14.133 1.622 C 14.133 1.0569 14.5715 0.5883 15.1388 0.5883 C 15.7062 0.5883 16.1567 1.0569 16.1567 1.622 C 16.1567 1.8095 16.1495 2.028 16.1416 2.2695 C 16.1315 2.5784 16.1201 2.9246 16.121 3.2909 L 16.2032 3.2905 H 16.2032 C 16.357 3.29 16.7051 3.2888 17.1681 3.2834 C 17.7198 3.2769 17.9445 3.5851 17.9445 3.9709 C 17.9445 4.3567 17.6475 4.626 17.2602 4.6276 C 16.9012 4.6291 16.1083 4.6247 16.1083 4.6247 C 16.0723 5.7674 16.0382 7.1451 16.0382 8.2475 C 16.0382 8.6451 16.3126 9.0995 16.9767 9.0995 C 18.3163 9.0995 18.8167 7.9092 18.9173 5.6498 C 18.9095 4.0766 18.8907 3.1653 18.8765 2.4785 V 2.4785 C 18.8666 1.9969 18.859 1.6258 18.859 1.2143 C 18.859 0.6493 19.3295 0.1442 19.8967 0.1442 C 20.4641 0.1442 20.8826 0.5977 20.8826 1.1627 C 20.8826 1.598 20.8651 2.1069 20.8413 2.8009 V 2.8009 V 2.801 C 20.801 3.9747 20.7425 5.6778 20.7195 8.4504 C 20.7165 8.8195 20.8967 9.0795 21.3748 9.0795 C 22.6524 9.0795 23.0066 7.6955 23.119 5.7625 C 23.1197 5.6695 23.1205 5.5785 23.1214 5.4891 L 23.1214 5.4887 C 23.1231 5.3054 23.1247 5.1289 23.1247 4.9561 C 23.1247 4.391 23.5011 3.9337 24.0686 3.9337 C 24.6359 3.9337 24.9694 4.4022 24.9694 4.9673 C 24.9694 5.3698 24.9562 5.7464 24.9427 6.1348 C 24.9307 6.4777 24.9184 6.8299 24.9146 7.2176 C 24.9047 8.2151 25.2455 9.0938 26.0756 9.0914 C 26.8726 9.0891 27.7479 8.7536 27.7691 7.045 C 27.7751 6.5701 27.7683 6.2053 27.7615 5.8371 V 5.837 V 5.8369 V 5.8368 C 27.7564 5.5642 27.7513 5.2897 27.7513 4.9673 C 27.7513 4.4022 28.1451 3.9337 28.7125 3.9337 C 29.2795 3.9337 29.6737 4.4022 29.6737 4.9673 C 29.6737 5.3051 29.6614 5.6415 29.6477 6.0145 V 6.0145 V 6.0146 V 6.0146 C 29.6307 6.4783 29.6117 6.9984 29.6117 7.6477 C 29.6117 7.6477 29.5769 10.0141 29.66 10.5378 C 29.9203 10.4512 30.2958 10.1968 30.6935 9.5802 C 30.9337 9.208 31.3928 9.1282 31.6758 9.293 C 32.0653 9.52 32.0514 9.9635 31.9058 10.2875 C 31.5298 11.1239 31.0409 11.6358 29.8047 12.0595 C 29.8086 13.4782 29.7098 15.5713 27.0868 15.9496 C 24.8405 16.2735 23.8244 14.9708 23.8211 13.8623 C 23.8157 12.112 25.5649 11.6022 28.0897 10.9665 L 28.0087 10.099 C 28.0087 10.099 27.4464 10.8364 26.0215 10.8008 C 24.9223 10.7733 24.1663 10.2543 23.7077 9.5213 C 23.1787 10.3901 22.3495 10.8105 21.1004 10.8105 C 20.2775 10.8105 19.4934 10.3758 19.1051 9.7457 C 18.5325 10.4308 17.7339 10.8015 16.6607 10.8015 C 15.7256 10.8015 15.0346 10.4786 14.6209 9.9746 C 14.087 10.5712 13.318 10.8068 12.2447 10.8068 Z M 28.2548 12.363 C 26.9786 12.6385 25.3798 13.0407 25.3983 13.8266 C 25.4158 14.5636 26.1767 14.6977 26.8111 14.5666 C 28.1286 14.2943 28.2816 13.5015 28.2548 12.363 Z M 11.9704 1.6249 C 11.9704 1.0544 11.5073 0.5932 10.9347 0.5932 C 10.3619 0.5932 9.8989 1.0544 9.8989 1.6249 C 9.8989 2.1953 10.3619 2.6566 10.9347 2.6566 C 11.5073 2.6566 11.9704 2.1953 11.9704 1.6249 Z" fill='#000000' transform='translate(456.000000, 492.000000) scale(2.250000, 2.250000)' />
</g>
<g id='corners-outer-1' transform="translate(0, 0) scale(5.60, 5.60) " style='fill:#000000' >
<path d="M 17.14 0 H 2 C 0.9 0 0 0.9 0 2 V 18 C 0 19.1 0.9 20 2 20 H 18 C 19.1 20 20 19.1 20 18 V 2 C 20 0.9 19.1 0 18 0 H 17.14 Z M 17.14 5.71 V 15.14 C 17.14 16.25 16.25 17.14 15.14 17.14 H 4.86 C 3.75 17.14 2.86 16.25 2.86 15.14 V 4.86 C 2.86 3.75 3.75 2.86 4.86 2.86 H 15.14 C 16.25 2.86 17.14 3.75 17.14 4.86 V 5.71 Z" />
</g>
<g id='corners-inner-1' transform="translate(32, 32) scale(5.60, 5.60) " style='fill:#000000' >
<path d="M 5.64 0 H 1 C 0.45 0 0 0.45 0 1 V 7.46 C 0 8.01 0.45 8.46 1 8.46 H 7.46 C 8.01 8.46 8.46 8.01 8.46 7.46 V 1 C 8.46 0.45 8.01 0 7.46 0 H 5.64 Z" />
</g>
<g id='corners-outer-2' transform="translate(416, 0) scale(5.60, 5.60) " style='fill:#000000' >
<path d="M 17.14 0 H 2 C 0.9 0 0 0.9 0 2 V 18 C 0 19.1 0.9 20 2 20 H 18 C 19.1 20 20 19.1 20 18 V 2 C 20 0.9 19.1 0 18 0 H 17.14 Z M 17.14 5.71 V 15.14 C 17.14 16.25 16.25 17.14 15.14 17.14 H 4.86 C 3.75 17.14 2.86 16.25 2.86 15.14 V 4.86 C 2.86 3.75 3.75 2.86 4.86 2.86 H 15.14 C 16.25 2.86 17.14 3.75 17.14 4.86 V 5.71 Z" />
</g>
<g id='corners-inner-2' transform="translate(448, 32) scale(5.60, 5.60) " style='fill:#000000' >
<path d="M 5.64 0 H 1 C 0.45 0 0 0.45 0 1 V 7.46 C 0 8.01 0.45 8.46 1 8.46 H 7.46 C 8.01 8.46 8.46 8.01 8.46 7.46 V 1 C 8.46 0.45 8.01 0 7.46 0 H 5.64 Z" />
</g>
<g id='corners-outer-3' transform="translate(0, 416) scale(5.60, 5.60) " style='fill:#000000' >
<path d="M 17.14 0 H 2 C 0.9 0 0 0.9 0 2 V 18 C 0 19.1 0.9 20 2 20 H 18 C 19.1 20 20 19.1 20 18 V 2 C 20 0.9 19.1 0 18 0 H 17.14 Z M 17.14 5.71 V 15.14 C 17.14 16.25 16.25 17.14 15.14 17.14 H 4.86 C 3.75 17.14 2.86 16.25 2.86 15.14 V 4.86 C 2.86 3.75 3.75 2.86 4.86 2.86 H 15.14 C 16.25 2.86 17.14 3.75 17.14 4.86 V 5.71 Z" />
</g>
<g id='corners-inner-3' transform="translate(32, 448) scale(5.60, 5.60) " style='fill:#000000' >
<path d="M 5.64 0 H 1 C 0.45 0 0 0.45 0 1 V 7.46 C 0 8.01 0.45 8.46 1 8.46 H 7.46 C 8.01 8.46 8.46 8.01 8.46 7.46 V 1 C 8.46 0.45 8.01 0 7.46 0 H 5.64 Z" />
</g>
</svg>
<g id="frame-sections">
				<path fill="#000000" d="M222,10a8,8,0,0,1,8,8V222a8,8,0,0,1-8,8H18a8,8,0,0,1-8-8V18a8,8,0,0,1,8-8H222m0-10H18A18,18,0,0,0,0,18V222a18,18,0,0,0,18,18H222a18,18,0,0,0,18-18V18A18,18,0,0,0,222,0Z"/>
			</g>
			</svg>